<svg xmlns="http://www.w3.org/2000/svg" xmlns:xlink="http://www.w3.org/1999/xlink" contentStyleType="text/css" data-diagram-type="ACTIVITY" height="474px" preserveAspectRatio="none" style="width:563px;height:474px;background:#FFFFFF;" version="1.1" viewBox="0 0 563 474" width="563px" zoomAndPan="magnify"><defs/><g><ellipse cx="371.615" cy="20" fill="#222222" rx="10" ry="10" style="stroke:#222222;stroke-width:1;"/><rect fill="#F1F1F1" height="33.9688" rx="12.5" ry="12.5" style="stroke:#181818;stroke-width:0.5;" width="121.1797" x="311.0251" y="50"/><text fill="#000000" font-family="sans-serif" font-size="12" lengthAdjust="spacing" textLength="101.1797" x="321.0251" y="71.1387">input credentials</text><polygon fill="#F1F1F1" points="349.2202,103.9688,394.0098,103.9688,406.0098,115.9688,394.0098,127.9688,349.2202,127.9688,337.2202,115.9688,349.2202,103.9688" style="stroke:#181818;stroke-width:0.5;"/><text fill="#000000" font-family="sans-serif" font-size="11" lengthAdjust="spacing" textLength="44.7896" x="349.2202" y="119.7769">correct?</text><text fill="#000000" font-family="sans-serif" font-size="11" lengthAdjust="spacing" textLength="19.2178" x="318.0024" y="113.3745">Yes</text><text fill="#000000" font-family="sans-serif" font-size="11" lengthAdjust="spacing" textLength="14.9585" x="406.0098" y="113.3745">No</text><rect fill="#F1F1F1" height="33.9688" rx="12.5" ry="12.5" style="stroke:#181818;stroke-width:0.5;" width="147.7578" x="138.606" y="137.9688"/><text fill="#000000" font-family="sans-serif" font-size="12" lengthAdjust="spacing" textLength="127.7578" x="148.606" y="159.1074">ask server for history</text><rect fill="#F1F1F1" height="33.9688" rx="12.5" ry="12.5" style="stroke:#181818;stroke-width:0.5;" width="104.668" x="160.1509" y="191.9375"/><text fill="#000000" font-family="sans-serif" font-size="12" lengthAdjust="spacing" textLength="84.668" x="170.1509" y="213.0762">output history</text><polygon fill="#F1F1F1" points="148.8481,245.9063,276.1216,245.9063,288.1216,257.9063,276.1216,269.9063,148.8481,269.9063,136.8481,257.9063,148.8481,245.9063" style="stroke:#181818;stroke-width:0.5;"/><text fill="#000000" font-family="sans-serif" font-size="11" lengthAdjust="spacing" textLength="127.2734" x="148.8481" y="261.7144">available new request?</text><text fill="#000000" font-family="sans-serif" font-size="11" lengthAdjust="spacing" textLength="19.2178" x="117.6304" y="255.312">Yes</text><text fill="#000000" font-family="sans-serif" font-size="11" lengthAdjust="spacing" textLength="14.9585" x="288.1216" y="255.312">No</text><rect fill="#F1F1F1" height="33.9688" rx="12.5" ry="12.5" style="stroke:#181818;stroke-width:0.5;" width="138.3359" x="26.4248" y="279.9063"/><text fill="#000000" font-family="sans-serif" font-size="12" lengthAdjust="spacing" textLength="118.3359" x="36.4248" y="301.0449">send a new request</text><rect fill="#F1F1F1" height="33.9688" rx="12.5" ry="12.5" style="stroke:#181818;stroke-width:0.5;" width="116.2168" x="37.4844" y="333.875"/><text fill="#000000" font-family="sans-serif" font-size="12" lengthAdjust="spacing" textLength="96.2168" x="47.4844" y="355.0137">output: pending</text><rect fill="#F1F1F1" height="33.9688" rx="12.5" ry="12.5" style="stroke:#181818;stroke-width:0.5;" width="169.1855" x="11" y="387.8438"/><text fill="#000000" font-family="sans-serif" font-size="12" lengthAdjust="spacing" textLength="149.1855" x="21" y="408.9824">server sends to Manager</text><rect fill="#F1F1F1" height="33.9688" rx="12.5" ry="12.5" style="stroke:#181818;stroke-width:0.5;" width="258.3828" x="200.1855" y="279.9063"/><text fill="#000000" font-family="sans-serif" font-size="12" lengthAdjust="spacing" textLength="238.3828" x="210.1855" y="301.0449">Output: "You can't send a new request"</text><ellipse cx="329.377" cy="344.875" fill="none" rx="11" ry="11" style="stroke:#222222;stroke-width:1;"/><ellipse cx="329.377" cy="344.875" fill="#222222" rx="6" ry="6" style="stroke:#222222;stroke-width:1;"/><rect fill="#F1F1F1" height="33.9688" rx="12.5" ry="12.5" style="stroke:#181818;stroke-width:0.5;" width="84.3535" x="468.5684" y="137.9688"/><text fill="#000000" font-family="sans-serif" font-size="12" lengthAdjust="spacing" textLength="64.3535" x="478.5684" y="159.1074">show error</text><ellipse cx="510.7451" cy="202.9375" fill="none" rx="11" ry="11" style="stroke:#222222;stroke-width:1;"/><ellipse cx="510.7451" cy="202.9375" fill="#222222" rx="6" ry="6" style="stroke:#222222;stroke-width:1;"/><ellipse cx="371.615" cy="452.8125" fill="none" rx="11" ry="11" style="stroke:#222222;stroke-width:1;"/><ellipse cx="371.615" cy="452.8125" fill="#222222" rx="6" ry="6" style="stroke:#222222;stroke-width:1;"/><line style="stroke:#181818;stroke-width:1;" x1="371.615" x2="371.615" y1="30" y2="50"/><polygon fill="#181818" points="367.615,40,371.615,50,375.615,40,371.615,44" style="stroke:#181818;stroke-width:1;"/><line style="stroke:#181818;stroke-width:1;" x1="212.4849" x2="212.4849" y1="171.9375" y2="191.9375"/><polygon fill="#181818" points="208.4849,181.9375,212.4849,191.9375,216.4849,181.9375,212.4849,185.9375" style="stroke:#181818;stroke-width:1;"/><line style="stroke:#181818;stroke-width:1;" x1="95.5928" x2="95.5928" y1="313.875" y2="333.875"/><polygon fill="#181818" points="91.5928,323.875,95.5928,333.875,99.5928,323.875,95.5928,327.875" style="stroke:#181818;stroke-width:1;"/><line style="stroke:#181818;stroke-width:1;" x1="95.5928" x2="95.5928" y1="367.8438" y2="387.8438"/><polygon fill="#181818" points="91.5928,377.8438,95.5928,387.8438,99.5928,377.8438,95.5928,381.8438" style="stroke:#181818;stroke-width:1;"/><line style="stroke:#181818;stroke-width:1;" x1="329.377" x2="329.377" y1="313.875" y2="333.875"/><polygon fill="#181818" points="325.377,323.875,329.377,333.875,333.377,323.875,329.377,327.875" style="stroke:#181818;stroke-width:1;"/><line style="stroke:#181818;stroke-width:1;" x1="136.8481" x2="95.5928" y1="257.9063" y2="257.9063"/><line style="stroke:#181818;stroke-width:1;" x1="95.5928" x2="95.5928" y1="257.9063" y2="279.9063"/><polygon fill="#181818" points="91.5928,269.9063,95.5928,279.9063,99.5928,269.9063,95.5928,273.9063" style="stroke:#181818;stroke-width:1;"/><line style="stroke:#181818;stroke-width:1;" x1="288.1216" x2="329.377" y1="257.9063" y2="257.9063"/><line style="stroke:#181818;stroke-width:1;" x1="329.377" x2="329.377" y1="257.9063" y2="279.9063"/><polygon fill="#181818" points="325.377,269.9063,329.377,279.9063,333.377,269.9063,329.377,273.9063" style="stroke:#181818;stroke-width:1;"/><line style="stroke:#181818;stroke-width:1;" x1="95.5928" x2="95.5928" y1="421.8125" y2="426.8125"/><line style="stroke:#181818;stroke-width:1;" x1="95.5928" x2="371.615" y1="426.8125" y2="426.8125"/><line style="stroke:#181818;stroke-width:1;" x1="371.615" x2="371.615" y1="426.8125" y2="441.8125"/><polygon fill="#181818" points="367.615,431.8125,371.615,441.8125,375.615,431.8125,371.615,435.8125" style="stroke:#181818;stroke-width:1;"/><line style="stroke:#181818;stroke-width:1;" x1="212.4849" x2="212.4849" y1="225.9063" y2="245.9063"/><polygon fill="#181818" points="208.4849,235.9063,212.4849,245.9063,216.4849,235.9063,212.4849,239.9063" style="stroke:#181818;stroke-width:1;"/><line style="stroke:#181818;stroke-width:1;" x1="510.7451" x2="510.7451" y1="171.9375" y2="191.9375"/><polygon fill="#181818" points="506.7451,181.9375,510.7451,191.9375,514.7451,181.9375,510.7451,185.9375" style="stroke:#181818;stroke-width:1;"/><line style="stroke:#181818;stroke-width:1;" x1="337.2202" x2="212.4849" y1="115.9688" y2="115.9688"/><line style="stroke:#181818;stroke-width:1;" x1="212.4849" x2="212.4849" y1="115.9688" y2="137.9688"/><polygon fill="#181818" points="208.4849,127.9688,212.4849,137.9688,216.4849,127.9688,212.4849,131.9688" style="stroke:#181818;stroke-width:1;"/><line style="stroke:#181818;stroke-width:1;" x1="406.0098" x2="510.7451" y1="115.9688" y2="115.9688"/><line style="stroke:#181818;stroke-width:1;" x1="510.7451" x2="510.7451" y1="115.9688" y2="137.9688"/><polygon fill="#181818" points="506.7451,127.9688,510.7451,137.9688,514.7451,127.9688,510.7451,131.9688" style="stroke:#181818;stroke-width:1;"/><line style="stroke:#181818;stroke-width:1;" x1="371.615" x2="371.615" y1="83.9688" y2="103.9688"/><polygon fill="#181818" points="367.615,93.9688,371.615,103.9688,375.615,93.9688,371.615,97.9688" style="stroke:#181818;stroke-width:1;"/><!--SRC=[ROyx3i9030NxFSKJ3U4AIS49W9hI18UiYDR1Ta3Sdlm4GU3AifzdTir9FOGyfhPpbCfdJXwfiIA4M24hHPLBtsxWDITaHxPDG5yvsHN6UcT59Oewcei-YsafdG-yzt2S3ZowKsper30IFw1ywzZ-q4U8SJg3bi7YivmCETe-5DEbM9wDZngk3IxOKQ8BwvJWnXZPNXQQmqnQ7QL3IMdj-3MlFeB-I-t4wirL2D_8t6fvW5LbDexnEJhqBm00]--></g></svg>