<svg xmlns="http://www.w3.org/2000/svg" xmlns:xlink="http://www.w3.org/1999/xlink" contentStyleType="text/css" data-diagram-type="ACTIVITY" height="254px" preserveAspectRatio="none" style="width:496px;height:254px;background:#FFFFFF;" version="1.1" viewBox="0 0 496 254" width="496px" zoomAndPan="magnify"><defs/><g><ellipse cx="250.7495" cy="20" fill="#222222" rx="10" ry="10" style="stroke:#222222;stroke-width:1;"/><rect fill="#F1F1F1" height="33.9688" rx="12.5" ry="12.5" style="stroke:#181818;stroke-width:0.5;" width="187.6133" x="156.9429" y="50"/><text fill="#000000" font-family="sans-serif" font-size="12" lengthAdjust="spacing" textLength="167.6133" x="166.9429" y="71.1387">receive request from server</text><polygon fill="#F1F1F1" points="200.3525,103.9688,301.1465,103.9688,313.1465,115.9688,301.1465,127.9688,200.3525,127.9688,188.3525,115.9688,200.3525,103.9688" style="stroke:#181818;stroke-width:0.5;"/><text fill="#000000" font-family="sans-serif" font-size="11" lengthAdjust="spacing" textLength="100.7939" x="200.3525" y="119.7769">approve or reject?</text><text fill="#000000" font-family="sans-serif" font-size="11" lengthAdjust="spacing" textLength="46.0195" x="142.333" y="113.3745">Approve</text><text fill="#000000" font-family="sans-serif" font-size="11" lengthAdjust="spacing" textLength="34.5952" x="313.1465" y="113.3745">Reject</text><rect fill="#F1F1F1" height="33.9688" rx="12.5" ry="12.5" style="stroke:#181818;stroke-width:0.5;" width="232.4316" x="11" y="137.9688"/><text fill="#000000" font-family="sans-serif" font-size="12" lengthAdjust="spacing" textLength="212.4316" x="21" y="159.1074">output: "your request is accepted!"</text><rect fill="#F1F1F1" height="33.9688" rx="12.5" ry="12.5" style="stroke:#181818;stroke-width:0.5;" width="221.7031" x="263.4316" y="137.9688"/><text fill="#000000" font-family="sans-serif" font-size="12" lengthAdjust="spacing" textLength="201.7031" x="273.4316" y="159.1074">output: "your request is rejected"</text><polygon fill="#F1F1F1" points="250.7495,177.9375,262.7495,189.9375,250.7495,201.9375,238.7495,189.9375,250.7495,177.9375" style="stroke:#181818;stroke-width:0.5;"/><ellipse cx="250.7495" cy="232.9375" fill="none" rx="11" ry="11" style="stroke:#222222;stroke-width:1;"/><ellipse cx="250.7495" cy="232.9375" fill="#222222" rx="6" ry="6" style="stroke:#222222;stroke-width:1;"/><line style="stroke:#181818;stroke-width:1;" x1="250.7495" x2="250.7495" y1="30" y2="50"/><polygon fill="#181818" points="246.7495,40,250.7495,50,254.7495,40,250.7495,44" style="stroke:#181818;stroke-width:1;"/><line style="stroke:#181818;stroke-width:1;" x1="188.3525" x2="127.2158" y1="115.9688" y2="115.9688"/><line style="stroke:#181818;stroke-width:1;" x1="127.2158" x2="127.2158" y1="115.9688" y2="137.9688"/><polygon fill="#181818" points="123.2158,127.9688,127.2158,137.9688,131.2158,127.9688,127.2158,131.9688" style="stroke:#181818;stroke-width:1;"/><line style="stroke:#181818;stroke-width:1;" x1="313.1465" x2="374.2832" y1="115.9688" y2="115.9688"/><line style="stroke:#181818;stroke-width:1;" x1="374.2832" x2="374.2832" y1="115.9688" y2="137.9688"/><polygon fill="#181818" points="370.2832,127.9688,374.2832,137.9688,378.2832,127.9688,374.2832,131.9688" style="stroke:#181818;stroke-width:1;"/><line style="stroke:#181818;stroke-width:1;" x1="127.2158" x2="127.2158" y1="171.9375" y2="189.9375"/><line style="stroke:#181818;stroke-width:1;" x1="127.2158" x2="238.7495" y1="189.9375" y2="189.9375"/><polygon fill="#181818" points="228.7495,185.9375,238.7495,189.9375,228.7495,193.9375,232.7495,189.9375" style="stroke:#181818;stroke-width:1;"/><line style="stroke:#181818;stroke-width:1;" x1="374.2832" x2="374.2832" y1="171.9375" y2="189.9375"/><line style="stroke:#181818;stroke-width:1;" x1="374.2832" x2="262.7495" y1="189.9375" y2="189.9375"/><polygon fill="#181818" points="272.7495,185.9375,262.7495,189.9375,272.7495,193.9375,268.7495,189.9375" style="stroke:#181818;stroke-width:1;"/><line style="stroke:#181818;stroke-width:1;" x1="250.7495" x2="250.7495" y1="83.9688" y2="103.9688"/><polygon fill="#181818" points="246.7495,93.9688,250.7495,103.9688,254.7495,93.9688,250.7495,97.9688" style="stroke:#181818;stroke-width:1;"/><line style="stroke:#181818;stroke-width:1;" x1="250.7495" x2="250.7495" y1="201.9375" y2="221.9375"/><polygon fill="#181818" points="246.7495,211.9375,250.7495,221.9375,254.7495,211.9375,250.7495,215.9375" style="stroke:#181818;stroke-width:1;"/><!--SRC=[XOqn3i8m40JxUyMHolc2Ko2-m0yiUosC86VEvqZyFeP8j6oxExFDWXgHLqIK3QnuTJJZhFBa1jsW2r79x4AjAcCXEaPtH3lFR3Uix2v7CnEFUEbMktcUtjBrvokDGuoeXdIQ5iAZWTtrw_d77Mz87snD9HCraxe3]--></g></svg>